<svg version="1.1" xmlns="http://www.w3.org/2000/svg" xmlns:xlink="http://www.w3.org/1999/xlink" width="220.5" height="41.5" viewBox="0,0,220.5,41.5"><g transform="translate(-129.25,-162.25)"><g data-paper-data="{&quot;isPaintingLayer&quot;:true}" fill-rule="nonzero" stroke-linejoin="miter" stroke-miterlimit="10" stroke-dasharray="" stroke-dashoffset="0" style="mix-blend-mode: normal"><path d="M130.5,202.5v-39h218v39z" fill="#eaeaea" stroke="#000000" stroke-width="2.5" stroke-linecap="butt"/><path d="M139.75,186.56936v-6.56451h6.56452v6.56452z" fill="#ebdada" stroke="none" stroke-width="0" stroke-linecap="butt"/><path d="M145.71774,182.39194v-6.56451h6.56452v6.56452z" fill="#ebdada" stroke="none" stroke-width="0" stroke-linecap="butt"/><path d="M151.68549,178.21452v-6.56451h6.56452v6.56452z" fill="#ebdada" stroke="none" stroke-width="0" stroke-linecap="butt"/><path d="M163.62097,188.35968v-6.56451h6.56452v6.56452z" fill="#ebdada" stroke="none" stroke-width="0" stroke-linecap="butt"/><path d="M169.58871,184.18226v-6.56452h6.56452v6.56452z" fill="#ebdada" stroke="none" stroke-width="0" stroke-linecap="butt"/><path d="M175.55645,180.00484v-6.56451h6.56452v6.56452z" fill="#ebdada" stroke="none" stroke-width="0" stroke-linecap="butt"/><path d="M190.47581,188.95645v-6.56451h6.56452v6.56452z" fill="#ebdada" stroke="none" stroke-width="0" stroke-linecap="butt"/><path d="M196.44355,184.77903v-6.56451h6.56452v6.56452z" fill="#ebdada" stroke="none" stroke-width="0" stroke-linecap="butt"/><path d="M202.41129,180.60162v-6.56452h6.56452v6.56452z" fill="#ebdada" stroke="none" stroke-width="0" stroke-linecap="butt"/><path d="M216.73387,188.95645v-6.56451h6.56452v6.56452z" fill="#ebdada" stroke="none" stroke-width="0" stroke-linecap="butt"/><path d="M222.70162,184.77903v-6.56451h6.56452v6.56452z" fill="#ebdada" stroke="none" stroke-width="0" stroke-linecap="butt"/><path d="M228.66936,180.60162v-6.56452h6.56452v6.56452z" fill="#ebdada" stroke="none" stroke-width="0" stroke-linecap="butt"/><path d="M244.18549,187.76291v-6.56452h6.56452v6.56452z" fill="#ebdada" stroke="none" stroke-width="0" stroke-linecap="butt"/><path d="M250.15323,183.58549v-6.56451h6.56451v6.56452z" fill="#ebdada" stroke="none" stroke-width="0" stroke-linecap="butt"/><path d="M256.12097,179.40807v-6.56451h6.56452v6.56452z" fill="#ebdada" stroke="none" stroke-width="0" stroke-linecap="butt"/><path d="M268.05645,189.55323v-6.56451h6.56452v6.56452z" fill="#ebdada" stroke="none" stroke-width="0" stroke-linecap="butt"/><path d="M274.0242,185.37581v-6.56451h6.56451v6.56452z" fill="#ebdada" stroke="none" stroke-width="0" stroke-linecap="butt"/><path d="M279.99194,181.19839v-6.56451h6.56451v6.56452z" fill="#ebdada" stroke="none" stroke-width="0" stroke-linecap="butt"/><path d="M294.91129,190.15v-6.56451h6.56451v6.56452z" fill="#ebdada" stroke="none" stroke-width="0" stroke-linecap="butt"/><path d="M300.87903,185.97258v-6.56451h6.56452v6.56452z" fill="#ebdada" stroke="none" stroke-width="0" stroke-linecap="butt"/><path d="M306.84677,181.79516v-6.56451h6.56452v6.56452z" fill="#ebdada" stroke="none" stroke-width="0" stroke-linecap="butt"/><path d="M321.16936,190.15v-6.56451h6.56452v6.56452z" fill="#ebdada" stroke="none" stroke-width="0" stroke-linecap="butt"/><path d="M327.1371,185.97258v-6.56451h6.56452v6.56452z" fill="#ebdada" stroke="none" stroke-width="0" stroke-linecap="butt"/><path d="M333.10484,181.79516v-6.56451h6.56451v6.56452z" fill="#ebdada" stroke="none" stroke-width="0" stroke-linecap="butt"/><path d="M172.75,177.65l2,8.5l-19.75,-6.75l5.75,-5.75" fill="none" stroke="#000000" stroke-width="1" stroke-linecap="round"/><path d="M164.25,190.15l9.5,-3.5" fill="none" stroke="#000000" stroke-width="1" stroke-linecap="round"/><path d="M216.75,190.15l6,-5l-10.5,-10l7.5,-4" fill="none" stroke="#000000" stroke-width="1" stroke-linecap="round"/><path d="M222.75,184.65l10,1.5" fill="none" stroke="#000000" stroke-width="1" stroke-linecap="round"/><path d="M287.25,176.65l-4,3.5l-7.5,-6" fill="none" stroke="#000000" stroke-width="1" stroke-linecap="round"/><path d="M288.25,187.15l-5.5,-7h-9" fill="none" stroke="#000000" stroke-width="1" stroke-linecap="round"/><path d="M317.75,173.65l7,6.5l-6,6l11.5,5" fill="none" stroke="#000000" stroke-width="1" stroke-linecap="round"/></g></g></svg>